<?xml version="1.0" standalone="no"?><!DOCTYPE svg PUBLIC "-//W3C//DTD SVG 1.1//EN" "http://www.w3.org/Graphics/SVG/1.1/DTD/svg11.dtd"><svg t="1569412401740" class="icon" viewBox="0 0 1024 1024" version="1.1" xmlns="http://www.w3.org/2000/svg" p-id="8685" xmlns:xlink="http://www.w3.org/1999/xlink" width="200" height="200"><defs><style type="text/css"></style></defs><path d="M871.2 668.7C871.2 807 755 895 525.5 895s-366.7-97.2-366.7-234c0-172.1 227.7-267.9 227.7-375.1 0-76-120-161.5-62.6-161.5 14.8 0 91.9 34.2 121.4 4.7 32.7-32.7 95.8-35.7 128.6-3.1 38.1 37.8 115.2-8.1 128.4-1.8 54.3 25.9-63.9 76.2-63.9 160.7 0 127.6 232.8 204 232.8 383.8z" fill="#FFA820" p-id="8686"></path><path d="M702.3 124.1c-4.9-2.3-18.7 2.6-36 7.7 15.8 6.8 31.1 14.6 45.7 23.3 7.4-12.8 7-23.1-9.7-31zM324 124.3c-20.7 0-18.3 11.2-6.7 29.1 13.1-7.6 26.6-14.6 40.6-20.7-15.8-4.2-28.7-8.4-33.9-8.4zM871.2 668.7c0-8.8-0.6-17.4-1.6-25.7-59.7 137.7-196.8 234-356.4 234-157.4 0-293-93.7-353.9-228.4-0.3 4.1-0.4 8.2-0.4 12.4 0 136.8 137.2 234 366.7 234s345.6-88 345.6-226.3z" fill="#FEAC33" p-id="8687"></path><path d="M682.5 192.1c12-14.2 23.4-26.4 29.5-37-14.6-8.7-29.9-16.5-45.7-23.3-29.2 8.6-68.5 17.9-92.4-5.9-32.8-32.6-95.9-29.6-128.6 3.1-19.1 19.1-58.3 11.5-87.5 3.7-14 6.1-27.5 13-40.6 20.7 4.5 7 10.5 15 17 23.8 48-26.6 103.2-41.7 162-41.7 68.9 0 133 20.8 186.3 56.6zM513.2 877c159.6 0 296.7-96.3 356.4-234-5.2-40.5-22.2-75.5-44.9-107.3-30.4 153.7-165.9 269.5-328.5 269.5-148.3 0-274-96.3-318.1-229.8-10.4 22.8-17.2 47.1-18.9 73.2 61 134.7 196.5 228.4 354 228.4z" fill="#FEB133" p-id="8688"></path><path d="M496.2 805.3c162.6 0 298.1-115.9 328.5-269.5-18.8-26.2-41.4-50.1-64.2-73-5.7 150.4-129.5 270.7-281.3 270.7-130.1 0-239.6-88.3-271.8-208.2-11.3 15.9-21.3 32.6-29.2 50.1 44 133.5 169.7 229.9 318 229.9zM653.9 231.4c8.2-14.5 18.6-27.5 28.6-39.3-53.3-35.7-117.3-56.6-186.3-56.6-58.7 0-114 15.1-162 41.7 5.5 7.5 11.5 15.5 17.3 23.9 38.3-19.5 81.7-30.6 127.7-30.6 66 0.1 126.7 22.8 174.7 60.9z" fill="#FEB633" p-id="8689"></path><path d="M479.2 733.5c151.9 0 275.6-120.3 281.3-270.8-26.5-26.4-53.4-51.4-75.2-76.7 3.3 15.4 5 31.3 5 47.7 0 126-102.1 228.1-228.1 228.1-108.5 0-199.2-75.7-222.4-177.2-11.5 13.1-22.5 26.6-32.5 40.7 32.3 119.9 141.8 208.2 271.9 208.2zM638.5 289.1c-0.1-1.4-0.1-2.9-0.1-4.3 0-19.6 6.4-37.4 15.5-53.4-48-38.1-108.7-60.8-174.7-60.8-46 0-89.4 11-127.7 30.6 5.6 8.1 11 16.5 15.9 25.1 28.9-13.2 60.9-20.6 94.8-20.6 71 0 134.5 32.5 176.3 83.4z" fill="#FFBC34" p-id="8690"></path><path d="M462.2 661.8c126 0 228.1-102.1 228.1-228.1 0-16.4-1.7-32.3-5-47.7-26.4-30.7-45.3-61.9-46.7-96.9-41.8-51-105.3-83.5-176.4-83.5-33.8 0-65.9 7.4-94.8 20.6 5 8.8 9.4 17.9 12.8 27 20.1-8.1 42-12.5 65-12.5 96.5 0 174.7 78.2 174.7 174.7s-78.2 174.7-174.7 174.7C360 590.1 289 529 273.6 448.3c-11.4 11.8-22.8 23.9-33.8 36.4 23.1 101.4 113.9 177.1 222.4 177.1z" fill="#FFC134" p-id="8691"></path><path d="M445.2 590.1c96.5 0 174.7-78.2 174.7-174.7s-78.2-174.7-174.7-174.7c-23 0-44.9 4.4-65 12.5 3.6 10 6 20 6.3 29.9 13-4.7 27-7.3 41.6-7.3 67 0 121.3 54.3 121.3 121.3s-54.3 121.3-121.3 121.3c-61.5 0-112.4-45.8-120.2-105.2-11.1 11.4-22.7 23.1-34.4 35.1 15.4 80.7 86.4 141.8 171.7 141.8z" fill="#FFC634" p-id="8692"></path><path d="M428.2 518.3c67 0 121.3-54.3 121.3-121.3s-54.3-121.3-121.3-121.3c-14.6 0-28.7 2.6-41.6 7.3 0 0.9 0.1 1.8 0.1 2.7 0 42.4-35.6 83-78.6 127.2 7.7 59.6 58.5 105.4 120.1 105.4z" fill="#FFCB34" p-id="8693"></path><path d="M525.5 904c-112.6 0-207.5-23.2-274.3-67.2-32.6-21.4-57.9-47.3-75.1-77-17.4-30-26.2-63.2-26.2-98.8 0-99.9 72.5-173.6 136.5-238.7 49-49.8 91.3-92.8 91.3-136.5 0-34.9-29.3-74.5-50.7-103.5-19.5-26.3-32.3-43.7-25.7-56.9 5.1-10.2 18.4-10.2 22.8-10.2 4.7 0 11.3 1.8 23.4 5.2 25.6 7.2 73.2 20.5 91.6 2.1 37-37 105.7-38.5 141.3-3.1 22.3 22.2 63.9 9.6 91.4 1.2 17-5.2 27.3-8.3 34.6-4.8 10.8 5.1 17.1 12 18.9 20.4 3.4 16.1-10.6 32.4-28.4 53-22 25.4-49.3 57.1-49.3 95.4 0 54.6 48 101.7 98.8 151.4 62.8 61.5 134 131.2 134 232.5 0 36-7.7 69-22.8 97.9-15.3 29.2-38.1 54.3-68 74.6-61.4 41.8-150.2 63-264.1 63z m-208-770c0.3 1.5 1.4 4.9 5.6 11.8 4.5 7.3 10.9 15.9 18.3 26 22.9 31 54.2 73.4 54.2 114.1 0 51-44.7 96.4-96.4 149.1-61.5 62.6-131.3 133.6-131.3 226 0 65.1 32.2 120.7 93.2 160.8 63.9 42 155.4 64.2 264.4 64.2 55.6 0 105.6-5.3 148.7-15.7 41.5-10 76.9-24.8 105.1-44.1 27.4-18.6 48.3-41.5 62.2-68 13.8-26.3 20.7-56.4 20.7-89.5 0-41.7-13.3-81.5-40.5-121.5-24.5-35.9-56.8-67.5-88-98.1-53.6-52.5-104.3-102.1-104.3-164.3 0-45.1 31-81 53.7-107.2 12.2-14.1 26-30.1 24.4-37.5-0.6-3.1-4.9-5.8-8.5-7.6-3.3-0.2-13.7 3-22.1 5.5-31.6 9.6-79.3 24.1-109.3-5.7-28.5-28.4-85.9-26.8-115.9 3.1-25.9 25.9-78 11.2-109.2 2.5-7.5-2.1-16.1-4.5-18.6-4.5-3.5-0.1-5.4 0.3-6.4 0.6z" fill="#FFA820" p-id="8694"></path><path d="M271.5 565.9c-5.1 1.5-10.8 0.8-15.5-2.4-8.2-5.7-10.2-16.9-4.5-25.1 42.7-61.5 89.9-96.7 91.9-98.2 8-5.9 19.3-4.2 25.2 3.8 5.9 8 4.2 19.3-3.8 25.2-0.7 0.5-44.7 33.6-83.7 89.8-2.5 3.4-5.9 5.8-9.6 6.9zM236 627.7c-4.3 1.3-9.1 1-13.4-1.2-8.9-4.5-12.4-15.3-7.9-24.2l5.1-10c4.5-8.9 15.3-12.4 24.2-7.9s12.4 15.3 7.9 24.2l-5.1 10c-2.3 4.6-6.3 7.8-10.8 9.1z" fill="#FFFFFF" p-id="8695"></path><path d="M626.9 662.2c0 40.2-24.6 77-71.2 85.4-3 0.5-5.2 3.2-5.2 6.2v29.3c0 7.5-6.1 13.6-13.6 13.6h-23.6c-7.5 0-13.6-6.1-13.6-13.6v-25c0-3.3-2.5-6.1-5.9-6.3-22.3-1.6-44.7-6.8-61.5-13.2-8.4-3.2-13-12.2-10.8-20.9 1.6-6.2 3.5-13.6 5.2-20.3 2.6-10.1 13.5-15.6 23.1-11.7 17.2 6.9 37.7 12.1 59.8 12.1 27.2 0 45.4-10.8 45.4-29 0-17.8-15-29.1-50.2-40.8-50.1-16.9-84.3-40.3-84.3-85.7 0-40.5 25.3-72.2 72.7-82.5 2.5-0.5 4.3-2.8 4.3-5.4V428c0-7.5 6.1-13.6 13.6-13.6h23.1c7.5 0 13.6 6.1 13.6 13.6v22.4c0 2.9 2.3 5.4 5.2 5.5 19.7 1.1 34.4 4.7 46.7 9.3 8.2 3 12.7 11.9 10.5 20.4-1.5 5.8-3.4 12.6-5 18.9-2.6 10-13.3 15.5-22.9 11.9-12.3-4.5-28.7-8.7-49.8-8.7-30.4 0-40.3 13.6-40.3 26.7 0 15 16.4 25.3 56.7 39.8 56 19.5 78 45.3 78 88z" fill="#FFE3B4" p-id="8696"></path></svg>